<svg width="20" height="20" viewBox="0 0 20 20" fill="none" xmlns="http://www.w3.org/2000/svg">
<path d="M16.2511 16.25H3.7511V3.75H10.0011V2.5H3.7511C3.41968 2.50033 3.10193 2.63213 2.86758 2.86648C2.63323 3.10083 2.50143 3.41858 2.5011 3.75V16.25C2.50143 16.5814 2.63323 16.8992 2.86758 17.1335C3.10193 17.3679 3.41968 17.4997 3.7511 17.5H16.2511C16.5825 17.4997 16.9003 17.3679 17.1346 17.1335C17.369 16.8992 17.5008 16.5814 17.5011 16.25V10H16.2511V16.25Z" fill="#039BCA"/>
<path d="M16.2511 16.25H3.7511V3.75H10.0011V2.5H3.7511C3.41968 2.50033 3.10193 2.63213 2.86758 2.86648C2.63323 3.10083 2.50143 3.41858 2.5011 3.75V16.25C2.50143 16.5814 2.63323 16.8992 2.86758 17.1335C3.10193 17.3679 3.41968 17.4997 3.7511 17.5H16.2511C16.5825 17.4997 16.9003 17.3679 17.1346 17.1335C17.369 16.8992 17.5008 16.5814 17.5011 16.25V10H16.2511V16.25Z" fill="#039BCA"/>
<path d="M16.2511 3.75V1.25H15.0011V3.75H12.5011V5H15.0011V7.5H16.2511V5H18.7511V3.75H16.2511Z" fill="#039BCA"/>
</svg>
