<svg width="16" height="17" viewBox="0 0 16 17" fill="none" xmlns="http://www.w3.org/2000/svg">
<path d="M7.634 5.81438e-09C8.30869 -4.53024e-05 8.95782 0.264707 9.44823 0.739946C9.93864 1.21518 10.2331 1.86488 10.2713 2.55576L10.2754 2.70914H14.5423C14.6967 2.70918 14.8454 2.76936 14.9583 2.8775C15.0711 2.98563 15.1397 3.13368 15.1502 3.29171C15.1608 3.44974 15.1124 3.60598 15.015 3.72885C14.9175 3.85173 14.7782 3.93208 14.6252 3.95367L14.5423 3.95951H13.8954L12.855 14.8127C12.8029 15.3538 12.565 15.8583 12.1837 16.236C11.8024 16.6138 11.3027 16.8403 10.7736 16.875L10.6306 16.88H4.63743C4.10708 16.88 3.59402 16.6865 3.18994 16.3342C2.78586 15.982 2.51708 15.4938 2.43165 14.9569L2.41296 14.8119L1.37183 3.95951H0.725705C0.578406 3.9595 0.436092 3.90479 0.325081 3.80549C0.21407 3.70619 0.141872 3.56902 0.121839 3.41935L0.11615 3.33432C0.116156 3.18324 0.1695 3.03728 0.266318 2.92342C0.363135 2.80957 0.496875 2.73552 0.642806 2.71497L0.725705 2.70914H4.99259C4.99259 1.99063 5.27088 1.30155 5.76624 0.793487C6.2616 0.285426 6.93346 5.81438e-09 7.634 5.81438e-09ZM12.6706 3.95951H2.59663L3.62638 14.6894C3.64918 14.9288 3.75205 15.1527 3.91752 15.3232C4.08299 15.4937 4.30088 15.6002 4.53421 15.6246L4.63743 15.6296H10.6306C11.1182 15.6296 11.5319 15.2754 11.6262 14.7944L11.6424 14.6894L12.6697 3.95951H12.6706ZM9.0563 6.25185C9.2036 6.25186 9.34591 6.30657 9.45692 6.40587C9.56793 6.50517 9.64013 6.64234 9.66016 6.79201L9.66585 6.87704V12.7121C9.66581 12.8705 9.60714 13.023 9.5017 13.1387C9.39627 13.2545 9.25193 13.3248 9.09785 13.3356C8.94376 13.3464 8.79143 13.2968 8.67163 13.1969C8.55183 13.0969 8.47348 12.954 8.45243 12.7971L8.44674 12.7121V6.87704C8.44674 6.71123 8.51096 6.55221 8.62528 6.43496C8.73959 6.31772 8.89463 6.25185 9.0563 6.25185ZM6.21171 6.25185C6.359 6.25186 6.50132 6.30657 6.61233 6.40587C6.72334 6.50517 6.79554 6.64234 6.81557 6.79201L6.82126 6.87704V12.7121C6.82121 12.8705 6.76254 13.023 6.65711 13.1387C6.55167 13.2545 6.40733 13.3248 6.25325 13.3356C6.09917 13.3464 5.94684 13.2968 5.82704 13.1969C5.70723 13.0969 5.62889 12.954 5.60784 12.7971L5.60215 12.7121V6.87704C5.60215 6.71123 5.66637 6.55221 5.78068 6.43496C5.895 6.31772 6.05004 6.25185 6.21171 6.25185ZM7.634 1.25037C7.27705 1.25038 6.93316 1.38805 6.67059 1.63605C6.40801 1.88405 6.24595 2.22424 6.21658 2.5891L6.21171 2.70914H9.0563C9.0563 2.32225 8.90645 1.9512 8.63972 1.67763C8.37298 1.40406 8.01122 1.25037 7.634 1.25037Z" fill="#039BCA"/>
</svg>
