<svg width="18" height="19" viewBox="0 0 18 19" fill="none" xmlns="http://www.w3.org/2000/svg">
<path d="M8.31384 1.20947H6.68884C2.62634 1.20947 1.00134 2.87614 1.00134 7.04281V12.0428C1.00134 16.2095 2.62634 17.8761 6.68884 17.8761H11.5638C15.6263 17.8761 17.2513 16.2095 17.2513 12.0428V10.3761" stroke="#039BCA" stroke-linecap="round" stroke-linejoin="round"/>
<path d="M12.4089 2.05936L6.00643 8.62602C5.76268 8.87602 5.51893 9.36769 5.47018 9.72602L5.1208 12.2344C4.9908 13.1427 5.61643 13.776 6.50205 13.651L8.94768 13.2927C9.28893 13.2427 9.7683 12.9927 10.0202 12.7427L16.4227 6.17602C17.5277 5.04269 18.0477 3.72602 16.4227 2.05936C14.7977 0.392691 13.5139 0.926024 12.4089 2.05936Z" stroke="#039BCA" stroke-miterlimit="10" stroke-linecap="round" stroke-linejoin="round"/>
<path d="M11.4907 3.00098C12.0351 4.99264 13.5545 6.55098 15.5045 7.11764" stroke="#039BCA" stroke-miterlimit="10" stroke-linecap="round" stroke-linejoin="round"/>
</svg>
