<svg width="16" height="16" viewBox="0 0 16 16" fill="none" xmlns="http://www.w3.org/2000/svg">
<path d="M15.6597 8.37174L12.3077 6.69666V2.76866C12.3077 2.65441 12.2758 2.54242 12.2157 2.44526C12.1556 2.34809 12.0696 2.26958 11.9674 2.21851L8.27511 0.372351C8.18969 0.329669 8.09552 0.307449 8.00003 0.307449C7.90454 0.307449 7.81037 0.329669 7.72495 0.372351L4.03265 2.21851C3.93044 2.26958 3.84447 2.34809 3.78437 2.44526C3.72427 2.54242 3.6924 2.65441 3.69234 2.76866V6.69604L0.340338 8.37174C0.238041 8.42285 0.152011 8.50147 0.091901 8.59875C0.0317905 8.69604 -2.27051e-05 8.80815 3.05844e-05 8.9225V13.2302C9.1599e-05 13.3444 0.0319587 13.4564 0.0920628 13.5536C0.152167 13.6508 0.238135 13.7293 0.340338 13.7803L4.03265 15.6265C4.11807 15.6691 4.21224 15.6913 4.30772 15.6913C4.4032 15.6913 4.49737 15.6691 4.5828 15.6265L8.00003 13.9188L11.4173 15.6277C11.5027 15.6704 11.5969 15.6926 11.6923 15.6926C11.7878 15.6926 11.882 15.6704 11.9674 15.6277L15.6597 13.7816C15.7621 13.7304 15.8482 13.6517 15.9083 13.5543C15.9684 13.4569 16.0002 13.3447 16 13.2302V8.9225C16.0001 8.80815 15.9683 8.69604 15.9082 8.59875C15.848 8.50147 15.762 8.42285 15.6597 8.37174ZM11.077 6.69666L8.61541 7.92743V4.99574L11.077 3.76497V6.69666ZM8.00003 1.61112L10.3163 2.76866L8.00003 3.92681L5.68372 2.76866L8.00003 1.61112ZM4.92311 3.76497L7.38465 4.99574V7.92743L4.92311 6.69666V3.76497ZM3.69234 14.0807L1.2308 12.8499V9.9182L3.69234 11.149V14.0807ZM4.30772 10.0807L1.99142 8.9225L4.30772 7.76435L6.62403 8.9225L4.30772 10.0807ZM4.92311 11.149L7.38465 9.9182V12.8499L4.92311 14.0807V11.149ZM11.077 14.0807L8.61541 12.8499V9.9182L11.077 11.149V14.0807ZM11.6923 10.0807L9.37603 8.9225L11.6923 7.76435L14.0086 8.9225L11.6923 10.0807ZM14.7693 12.8499L12.3077 14.0807V11.149L14.7693 9.9182V12.8499Z" fill="#039BCA"/>
</svg>
